<?xml version="1.0" encoding="UTF-8"?>
<svg xmlns="http://www.w3.org/2000/svg" version="1.1" viewBox="0 0 433 330.52">
  <defs>
    <style>
      .cls-1 {
        fill: #f15e60;
      }

      .cls-2 {
        fill: #2e4059;
      }
    </style>
  </defs>
  <!-- Generator: Adobe Illustrator 28.7.4, SVG Export Plug-In . SVG Version: 1.2.0 Build 166)  -->
  <g>
    <g id="Layer_1">
      <g>
        <polygon id="Rectangle_2-2" class="cls-1" points="163.56 34.83 258.86 34.83 258.86 194.33 176.54 194.33 163.56 157.67 163.56 34.83"/>
        <path id="Rectangle_3" class="cls-1" d="M268.57,40.86h47.48c28.57,0,46.56,12.52,46.56,41.56v111.91h-94.04V40.86Z"/>
        <rect id="Rectangle_1-2" class="cls-1" x="61.02" y="27.59" width="93.85" height="166.74"/>
        <g>
          <path class="cls-2" d="M74.44,205.55l.61.61v1.81c4.23-2.42,8.47-4.23,13.91-4.23,9.67,0,16.33,3.02,20.56,7.86,5.44-4.84,12.7-7.86,19.35-7.86,18.14,0,26,10.28,26,26.6v31.45l-.61.6h-12.82l-.6-.6v-29.87c0-9.67-4.23-14.63-12.46-14.63-5.44,0-9.8,2.42-13.43,6.05v38.46l-.6.6h-12.82l-.6-.6v-29.87c0-9.67-4.23-14.63-12.46-14.63-5.44,0-9.79,2.42-13.42,6.05v38.46l-.61.6h-12.82l-.6-.6v-55.63l.6-.61h12.82Z"/>
          <path class="cls-2" d="M178.55,205.55l.6.61,13.91,36.76,11.97-32.34.6-.61h11.13l.6.61,11.97,32.34,14.03-36.76.61-.61h14.39l.48.61-22.73,55.63-.61.6h-12.34l-.6-.6-11.37-29.63-11.37,29.63-.61.6h-12.34l-.6-.6-22.74-55.63.61-.61h14.39Z"/>
          <path class="cls-2" d="M282.19,205.55l.61.61v1.81c4.23-2.42,8.47-4.23,13.91-4.23,9.67,0,16.33,3.02,20.56,7.86,5.44-4.84,12.7-7.86,19.35-7.86,18.14,0,26,10.28,26,26.6v31.45l-.6.6h-12.82l-.6-.6v-29.87c0-9.67-4.23-14.63-12.46-14.63-5.44,0-9.8,2.42-13.43,6.05v38.46l-.6.6h-12.82l-.6-.6v-29.87c0-9.67-4.23-14.63-12.46-14.63-5.44,0-9.79,2.42-13.42,6.05v38.46l-.61.6h-12.82l-.6-.6v-55.63l.6-.61h12.82Z"/>
        </g>
      </g>
    </g>
  </g>
</svg>